<svg height="511pt" viewBox="-66 0 511 511.99956" width="511pt" xmlns="http://www.w3.org/2000/svg"><path d="m78.972656 269.078125c14.355469 14.355469 14.355469 37.632813 0 51.988281-14.355468 14.355469-37.632812 14.355469-51.988281 0-14.359375-14.355468-36.140625-59.414062-21.785156-73.773437 14.359375-14.355469 59.417969 7.425781 73.773437 21.785156zm0 0" fill="#eaaa83"/><path d="m300.136719 269.078125c-14.355469 14.355469-14.355469 37.632813 0 51.988281 14.359375 14.355469 37.636719 14.355469 51.992187 0 14.355469-14.355468 36.136719-59.414062 21.78125-73.773437-14.355468-14.355469-59.414062 7.425781-73.773437 21.785156zm0 0" fill="#ffbf9d"/><path d="m302.457031 512h-225.800781c-26.320312 0-47.660156-21.335938-47.660156-47.65625v-27.144531c0-42.15625 34.179687-76.335938 76.335937-76.335938h168.445313c42.160156 0 76.335937 34.179688 76.335937 76.335938v27.144531c0 26.320312-21.335937 47.65625-47.65625 47.65625zm0 0" fill="#76e7e7"/><path d="m235.367188 442.65625v-81.792969h-130.035157c-42.15625 0-76.335937 34.179688-76.335937 76.335938v27.144531c0 26.320312 21.339844 47.65625 47.660156 47.65625h99.09375c52.242188-23.714844 59.617188-69.34375 59.617188-69.34375zm0 0" fill="#2eddda"/><path d="m218.03125 398.4375h-56.953125c-60.042969 0-108.71875-48.675781-108.71875-108.71875v-80.507812c0-75.769532 61.425781-137.195313 137.195313-137.195313 75.773437 0 137.199218 61.425781 137.199218 137.195313v80.507812c0 60.042969-48.675781 108.71875-108.722656 108.71875zm0 0" fill="#ffd4bd"/><path d="m116.515625 226.027344c-10.683594-90.835938 76.460937-139.1875 101.402344-151.078125-9.148438-1.921875-18.644531-2.933594-28.363281-2.933594-75.769532 0-137.195313 61.425781-137.195313 137.195313v80.507812c0 57.386719 44.476563 104.390625 100.835937 108.433594-46.582031-25.71875-26.664062-86.957032-36.679687-172.125zm0 0" fill="#ffbf9d"/><path d="m253.226562 306.144531c-4.265624 0-7.726562-3.460937-7.726562-7.726562v-12.828125c0-4.265625 3.460938-7.726563 7.726562-7.726563 4.269532 0 7.726563 3.460938 7.726563 7.726563v12.828125c0 4.265625-3.457031 7.726562-7.726563 7.726562zm0 0" fill="#454545"/><path d="m125.882812 306.144531c-4.265624 0-7.726562-3.460937-7.726562-7.726562v-12.828125c0-4.265625 3.460938-7.726563 7.726562-7.726563 4.269532 0 7.726563 3.460938 7.726563 7.726563v12.828125c0 4.265625-3.457031 7.726562-7.726563 7.726562zm0 0" fill="#454545"/><path d="m307.359375 298.050781c-32.175781 37.316407-80.757813 33.195313-80.757813 33.195313h-74.09375s-48.582031 4.121094-80.757812-33.195313c-7.90625-9.171875-22.972656-3.761719-23.222656 8.34375-.589844 28.609375 1.898437 65.003907 14.554687 87.691407 23.363281 41.894531 38.449219 32.226562 55.074219 24.171874.515625.804688 19.019531 35.667969 71.398438 35.667969 52.378906 0 70.882812-34.863281 71.398437-35.667969 16.625 8.054688 31.710937 17.722657 55.074219-24.171874 12.65625-22.6875 15.144531-59.082032 14.554687-87.691407-.246093-12.105469-15.316406-17.511719-23.222656-8.34375zm0 0" fill="#dd6642"/><path d="m156.320312 421.75c-12.433593-20.007812-2.894531-46.550781 19.402344-54.164062 26.28125-8.972657 41.980469-24.648438 41.980469-24.648438v-11.6875h-65.195313s-48.582031 4.117188-80.757812-33.199219c-7.90625-9.167969-22.972656-3.757812-23.222656 8.34375-.589844 28.609375 1.902344 65.003907 14.554687 87.695313 23.363281 41.890625 38.449219 32.222656 55.074219 24.167968.515625.804688 19.019531 35.667969 71.398438 35.667969-15.546876-9.121093-26.09375-20.6875-33.234376-32.175781zm0 0" fill="#b24e2f"/><path d="m220.460938 313.878906c-7.800782-11.933594-20.011719-8.78125-26.503907-5.910156-2.808593 1.242188-5.992187 1.242188-8.800781 0-6.492188-2.871094-18.707031-6.023438-26.507812 5.910156-4 6.117188-8.59375 9.382813-12.824219 11.0625-5.136719 2.035156-5.773438 8.960938-1.035157 11.800782 8.460938 5.078124 20.902344 9.222656 36.605469 5.199218 5.367188-1.375 10.957031-1.375 16.324219 0 15.699219 4.023438 28.144531-.121094 36.605469-5.199218 4.734375-2.839844 4.097656-9.765626-1.035157-11.800782-4.234374-1.679687-8.828124-4.945312-12.828124-11.0625zm0 0" fill="#e7896e"/><path d="m116.515625 225.882812s-12.65625 39.90625-65.859375 43.917969c-8.558594.644531-14.351562-8.546875-10.167969-16.039062 5.433594-9.742188 10.945313-23.859375 11.871094-41.921875zm0 0" fill="#b24e2f"/><path d="m262.597656 225.882812s12.65625 39.90625 65.859375 43.917969c8.558594.644531 14.347657-8.546875 10.167969-16.039062-5.4375-9.742188-10.949219-23.859375-11.871094-41.921875zm0 0" fill="#dd6642"/><path d="m52.359375 211.835938s65.796875 23.390624 137.195313 23.390624c71.398437 0 137.199218-23.390624 137.199218-23.390624s0-119.625 12.390625-146.726563c7.566407-16.546875 16.519531-27.765625 25.289063-35.371094 8.617187-7.472656 4.425781-21.59375-6.886719-23.042969-55.449219-7.109374-150.402344-13.925781-218.121094 9.761719-15.703125 5.492188-29.757812 14.882813-40.847656 27.285157-23.40625 26.175781-58.039063 80.980468-46.21875 168.09375zm0 0" fill="#ff8a98"/><path d="m146.550781 132.3125c-19.589843-61.074219 50.183594-128.035156 50.976563-128.792969-20.4375 2.554688-40.230469 6.683594-58.101563 12.9375-15.703125 5.492188-29.757812 14.882813-40.847656 27.285157-23.410156 26.175781-58.039063 80.980468-46.21875 168.097656 0 0 65.796875 23.386718 137.195313 23.386718 26.617187 0 52.453124-3.25 74.394531-7.328124-33.296875-50.726563-101.199219-45.078126-117.398438-95.585938zm0 0" fill="#fd5c6f"/></svg>