<?xml version="1.0" encoding="iso-8859-1"?>
<!-- Generator: Adobe Illustrator 19.0.0, SVG Export Plug-In . SVG Version: 6.00 Build 0)  -->
<svg version="1.1" id="Capa_1" xmlns="http://www.w3.org/2000/svg" xmlns:xlink="http://www.w3.org/1999/xlink" x="0px" y="0px"
	 viewBox="0 0 424.229 424.229" style="enable-background:new 0 0 424.229 424.229;" xml:space="preserve">
<g>
	<path style="fill:#1185E0;" d="M79.935,197.486c-7.837,0-14.629-6.269-15.673-14.106c-3.135-32.392,7.837-64.261,30.824-86.727
		c6.269-6.269,16.196-6.269,21.943,0c5.747,6.269,6.269,16.196,0,21.943c-16.196,16.196-24.033,38.661-21.42,61.649
		c1.045,8.359-5.224,16.196-14.106,17.241C80.98,197.486,80.457,197.486,79.935,197.486z"/>
	<path style="fill:#1185E0;" d="M408.555,424.229c-4.18,0-7.837-1.567-10.971-4.702L283.69,305.633
		c-6.269-6.269-6.269-16.196,0-21.943c6.269-6.269,16.196-6.269,21.943,0l113.894,113.894c6.269,6.269,6.269,16.196,0,21.943
		C416.392,422.661,412.735,424.229,408.555,424.229z"/>
</g>
<path style="fill:#4DCFE0;" d="M179.2,358.4C80.457,358.4,0,277.943,0,179.2S80.457,0,179.2,0s179.2,80.457,179.2,179.2
	S277.943,358.4,179.2,358.4z M179.2,31.347c-81.502,0-147.853,66.351-147.853,147.853c0,81.502,66.351,147.853,147.853,147.853
	S327.053,260.702,327.053,179.2S260.702,31.347,179.2,31.347z"/>
<g>
</g>
<g>
</g>
<g>
</g>
<g>
</g>
<g>
</g>
<g>
</g>
<g>
</g>
<g>
</g>
<g>
</g>
<g>
</g>
<g>
</g>
<g>
</g>
<g>
</g>
<g>
</g>
<g>
</g>
</svg>
