<?xml version="1.0" encoding="iso-8859-1"?>
<!-- Generator: Adobe Illustrator 19.0.0, SVG Export Plug-In . SVG Version: 6.00 Build 0)  -->
<svg version="1.1" id="Capa_1" xmlns="http://www.w3.org/2000/svg" xmlns:xlink="http://www.w3.org/1999/xlink" x="0px" y="0px"
	 viewBox="0 0 480.653 480.653" style="enable-background:new 0 0 480.653 480.653;" xml:space="preserve">
<path style="fill:#00BBD3;" d="M251.037,295.184c-3.135,3.135-7.314,4.702-10.971,4.702c-3.657,0-7.837-1.567-10.971-4.702
	l-44.408-44.408v177.11l117.029,52.245V244.506L251.037,295.184z"/>
<g>
	<path style="fill:#4DCFE0;" d="M420.833,192.784l-85.159,17.763c-1.567,2.09-3.657,3.657-5.224,5.747l-28.735,28.735v235.624
		l123.298-24.555c4.702-1.045,8.359-5.224,8.359-10.449V203.233C433.371,196.441,427.102,191.216,420.833,192.784z"/>
	<path style="fill:#4DCFE0;" d="M149.682,215.771c-8.359-8.359-15.673-17.763-21.943-29.78l0,0c-0.522-1.045-1.045-2.09-1.567-3.657
		l-71.053,18.808c-4.702,1.045-7.837,5.224-7.837,9.927v241.894c0,6.792,6.792,12.016,13.061,9.927l124.865-35.527V250.776
		L149.682,215.771z"/>
</g>
<path style="fill:#D4E1F4;" d="M127.739,189.649c6.269,11.494,13.584,21.42,21.943,29.78l35.004,35.004l44.408,44.408
	c3.135,3.135,7.314,4.702,10.971,4.702c3.657,0,7.837-1.567,10.971-4.702l50.678-50.678l28.735-28.735
	c1.567-1.567,3.657-3.657,5.224-5.747c20.898-22.988,32.914-53.812,32.914-85.682c0-33.959-13.061-66.351-37.616-90.384
	C306.416,13.061,274.024,0,240.065,0s-66.351,13.061-90.384,37.616c-39.184,39.184-48.588,98.22-23.51,148.376
	C126.171,187.037,126.694,188.082,127.739,189.649C127.739,189.127,127.739,189.127,127.739,189.649z M240.065,85.682
	c21.42,0,39.184,17.763,39.184,39.184s-17.763,39.184-39.184,39.184s-39.184-17.763-39.184-39.184S218.645,85.682,240.065,85.682z"
	/>
<g>
</g>
<g>
</g>
<g>
</g>
<g>
</g>
<g>
</g>
<g>
</g>
<g>
</g>
<g>
</g>
<g>
</g>
<g>
</g>
<g>
</g>
<g>
</g>
<g>
</g>
<g>
</g>
<g>
</g>
</svg>
